<svg width="113" height="29" viewBox="0 0 113 29" fill="none" xmlns="http://www.w3.org/2000/svg">
<path d="M28.076 28.9205C26.1061 28.6391 24.3832 27.8212 23.0675 26.5428C21.9701 25.4765 21.2585 24.3038 20.734 22.697C19.9151 20.1883 19.9148 16.963 20.7333 14.5055C21.5265 12.1239 23.3124 10.0508 25.4981 8.97448C28.5251 7.48392 32.7854 7.57755 35.5889 9.19625C38.1119 10.653 39.6402 13.2415 40.0654 16.778C40.1952 17.8578 40.111 20.1386 39.9065 21.08C39.0697 24.9333 36.6323 27.6251 33.0614 28.6396C32.6766 28.749 32.0799 28.8769 31.7354 28.9239C31.0064 29.0233 28.7815 29.0213 28.076 28.9205ZM31.023 27.3731C31.5985 27.2055 32.3082 26.5526 32.6867 25.8427C33.468 24.3772 33.8168 22.2101 33.8255 18.769C33.8363 14.4564 33.1471 11.7121 31.6925 10.2753C31.0816 9.67186 30.6484 9.48446 29.8674 9.48569C28.1341 9.48843 27.0339 11.2635 26.5992 14.7589C26.3994 16.3655 26.3984 20.1932 26.5974 21.598C27.2131 25.9454 28.8028 28.0199 31.023 27.3731ZM62.9663 28.9195C62.1603 28.8393 59.6975 28.4373 58.8372 28.2454L58.242 28.1127L58.2884 24.9948C58.4002 17.4882 58.4142 13.3904 58.3419 9.40522C58.2711 5.50131 58.2504 5.08854 58.0969 4.51106C57.9025 3.77935 57.6218 3.26895 57.2842 3.03315C57.1531 2.94155 56.7968 2.81174 56.4925 2.74467C55.4809 2.52177 55.5358 2.55751 55.5088 2.10483C55.4933 1.84407 55.5221 1.6718 55.5901 1.61894C55.6812 1.54808 63.978 -0.00435099 64.2422 9.16709e-06C64.3181 0.00126192 64.3289 1.04191 64.29 4.62373C64.2624 7.16589 64.2588 9.24584 64.2821 9.24584C64.3054 9.24584 64.6086 9.11707 64.9558 8.95968C66.0026 8.48526 66.9674 8.27941 68.3686 8.2315C69.3016 8.1996 69.7337 8.21958 70.2124 8.31673C73.3419 8.95189 75.6579 11.4647 76.4672 15.1032C76.6783 16.0523 76.7569 18.4112 76.6167 19.5928C76.4972 20.5999 76.1564 21.9567 75.8016 22.8373C74.4632 26.16 71.5914 28.3277 67.7817 28.891C66.9041 29.0207 64.1484 29.037 62.9663 28.9195ZM66.2222 27.3346C66.8124 27.2248 67.2709 26.9944 67.7631 26.5603C68.9969 25.4722 69.9245 23.2257 70.2893 20.4425C70.4379 19.3089 70.4178 16.7258 70.2531 15.7796C69.8077 13.2206 68.8505 11.5387 67.454 10.8615C66.8748 10.5806 66.7854 10.5608 66.0983 10.5608C65.6069 10.5608 65.1842 10.6124 64.8248 10.7162L64.2868 10.8717L64.247 13.7844C64.1961 17.5154 64.3199 26.8561 64.4237 27.1242C64.49 27.2952 64.563 27.3315 64.8919 27.3568C65.6661 27.4164 65.7942 27.4143 66.2222 27.3346ZM86.3223 28.88C82.292 28.1669 79.4097 25.3633 78.4679 21.24C78.3468 20.7097 78.2932 20.1163 78.2628 18.9682C78.2148 17.1519 78.3654 16.0245 78.8432 14.6238C79.7607 11.9342 81.405 10.0283 83.7935 8.88597C86.3146 7.68028 89.7614 7.60131 91.9925 8.69812C94.5045 9.93303 95.9827 12.3988 96.3576 15.9798C96.4081 16.4619 96.4374 17.0357 96.4227 17.2548L96.3959 17.6533L90.3843 17.6737L84.3726 17.6941L84.3955 18.3909C84.4486 20.005 84.8024 21.4326 85.4568 22.6739C85.7542 23.238 85.9909 23.5456 86.5661 24.1152C87.8653 25.402 89.1577 25.9002 91.1966 25.9002C92.675 25.9002 93.7381 25.6108 94.8499 24.9057C95.1613 24.7082 95.4769 24.5466 95.5511 24.5466C95.7208 24.5466 96.1116 25.0401 96.1116 25.2544C96.1116 25.6056 94.946 26.738 93.8091 27.4913C92.878 28.1083 91.4014 28.667 90.121 28.8867C89.2242 29.0406 87.2097 29.0371 86.3223 28.88ZM88.8731 15.8904L90.2865 15.8421L90.2357 14.8573C90.0562 11.3843 89.1899 9.48646 87.7846 9.48798C86.2574 9.48963 85.037 11.4157 84.5295 14.625C84.4672 15.0195 84.4155 15.4873 84.4147 15.6645L84.4132 15.9869L85.9364 15.9627C86.7742 15.9495 88.0957 15.9169 88.8731 15.8904ZM102.57 28.9573C101.123 28.8051 98.8192 28.3104 98.0523 27.9871L97.6777 27.8291L97.6266 26.0086C97.5985 25.0073 97.5661 23.6685 97.5546 23.0335L97.5337 21.8789L97.7582 21.7733C97.8816 21.7153 98.1308 21.6611 98.312 21.6528L98.6413 21.6379L98.9218 22.3152C100.016 24.9578 101.3 26.3827 102.977 26.816C103.616 26.9813 104.815 26.9828 105.289 26.8188C106.615 26.3595 107.342 25.3744 107.349 24.0286C107.356 22.4348 106.463 21.669 103.089 20.3762C100.999 19.5753 100.27 19.163 99.4017 18.2912C98.4652 17.3508 98.0157 16.2804 97.9313 14.7896C97.8293 12.988 98.4041 11.4693 99.6777 10.1751C100.959 8.8727 102.623 8.16682 104.89 7.96391C106.886 7.78523 109.95 8.20052 111.555 8.86733L111.848 8.98898L111.901 10.6116C111.929 11.5041 111.959 12.7004 111.967 13.2702L111.98 14.3061L111.587 14.4494C110.965 14.6759 110.924 14.6475 110.578 13.7484C109.609 11.2283 108.482 10.0358 106.727 9.67155C105.657 9.44956 104.763 9.68822 104.114 10.3694C103.607 10.9008 103.409 11.3727 103.362 12.1652C103.31 13.0238 103.466 13.4879 104.001 14.0619C104.66 14.7694 105.74 15.3801 107.891 16.2619C110.526 17.342 111.783 18.2589 112.467 19.5991C112.911 20.4694 113.036 21.1646 112.992 22.5026C112.958 23.5067 112.925 23.7131 112.692 24.3872C111.933 26.5852 110.219 28.0322 107.572 28.7106C106.675 28.9404 106.547 28.9523 104.763 28.9714C103.736 28.9825 102.749 28.9761 102.57 28.9573ZM0.107981 28.4784C0.0404369 28.4517 0.00643246 28.2531 0.00643246 27.8853C0.00643246 27.225 -0.03647 27.2546 1.26563 27.0176C2.26431 26.8358 2.6216 26.65 3.06261 26.0828C3.91766 24.9831 4.10248 22.8656 4.10439 14.1469C4.10619 5.95893 3.94539 4.23648 3.06107 2.97099C2.66872 2.40954 2.00753 2.10467 0.900056 1.97458L0.0470517 1.87438L0.0235259 1.22112L0 0.567872L0.267241 0.521158C0.414224 0.495465 5.57838 0.484609 11.7431 0.497032L22.9518 0.519621L23.0044 0.838387C23.0333 1.01371 23.0807 2.81202 23.1098 4.83464L23.1627 8.51212L22.5847 8.68432C21.7148 8.94352 21.7201 8.94667 21.3288 7.93093C20.3675 5.43596 19.2653 3.99832 17.757 3.27236C16.7168 2.77168 16.2359 2.71114 13.2982 2.71114H10.7416L10.6975 3.12952C10.6149 3.91408 10.4844 8.96099 10.4853 11.3377L10.4862 13.7086L11.2377 13.7043C11.651 13.702 12.4659 13.6722 13.0487 13.638C13.9248 13.5867 14.1851 13.5411 14.5516 13.3746C15.4522 12.9657 16.0648 12.0656 16.4402 10.6001L16.634 9.84353L17.2971 9.82038L17.9601 9.79724V14.5852V19.3731L17.2968 19.35L16.6335 19.3268L16.4452 18.5697C16.0914 17.1473 15.4106 16.1289 14.5692 15.7639C14.1807 15.5953 13.2193 15.4995 11.3595 15.444L10.4862 15.4179V17.2167C10.4862 19.1768 10.596 21.8285 10.7369 23.2677C10.9332 25.2739 11.4558 26.3825 12.3944 26.7837C12.5736 26.8603 13.1407 26.9847 13.6545 27.0602C14.1683 27.1356 14.6527 27.2298 14.7309 27.2694C14.9292 27.3699 14.9409 28.4089 14.7446 28.4828C14.5909 28.5407 0.254332 28.5363 0.107981 28.4784ZM40.1545 28.4634C40.0804 28.417 40.0562 28.2333 40.0733 27.8467L40.0976 27.296L40.382 27.2366C40.5383 27.2039 40.8742 27.1391 41.1284 27.0925C41.915 26.9483 42.367 26.5295 42.6214 25.7092C42.8286 25.0409 42.92 22.9029 42.9248 18.6096C42.9306 13.3587 42.8191 12.1187 42.2778 11.4158C41.9845 11.0348 41.773 10.9265 41.0613 10.7925C40.71 10.7263 40.3403 10.6554 40.2398 10.6349C40.077 10.6016 40.057 10.5496 40.057 10.1591C40.057 9.77931 40.0815 9.7107 40.2398 9.64684C40.4829 9.54876 48.5308 7.97078 48.7879 7.97078H48.9885L48.9491 9.14623C48.9275 9.79272 48.8929 10.7341 48.8723 11.2381L48.8348 12.1546L49.1263 11.6388C50.0597 9.98773 51.1064 8.9628 52.4982 8.33709C53.2623 7.9936 53.772 7.89109 54.716 7.89109C55.8355 7.89109 56.9546 8.24941 56.9546 8.60784C56.9546 8.84885 54.9823 13.9612 54.8735 14.0021C54.8204 14.0221 54.4353 13.8776 54.0176 13.681C53.1466 13.271 52.3295 13.0705 51.5362 13.0722C50.5484 13.0743 49.445 13.4312 49.0093 13.8896C48.8229 14.0856 48.822 14.0974 48.7757 17.0254C48.7299 19.9249 48.8284 23.4618 48.9946 24.8843C49.1362 26.0961 49.4645 26.6928 50.1424 26.9706C50.3686 27.0633 51.7995 27.2556 52.2665 27.2561C52.3019 27.2561 52.3202 27.534 52.3071 27.8737L52.2834 28.4913L46.2718 28.5103C42.9653 28.5208 40.2126 28.4996 40.1545 28.4634Z" fill="white"/>
</svg>