<svg width="128" height="30" viewBox="0 0 128 30" fill="none" xmlns="http://www.w3.org/2000/svg">
<path d="M127.107 9.92096L126.74 14.4079H124.942C122.071 14.4079 120.579 16.7531 120.579 19.0006V29.1345H115.491V9.92096H120.31L120.42 12.3191C121.431 10.6746 123.201 9.92096 125.383 9.92096H127.107ZM91.8294 29.1343H86.7363V18.9772C86.7363 16.85 86.556 14.1728 83.62 14.1728C80.7924 14.1728 79.6659 16.2522 79.6659 18.6736V29.1343H74.5746V9.92079H79.295L79.4029 12.3771C80.4146 10.7326 82.299 9.45209 85.0786 9.45209C90.2099 9.45209 91.8294 13.1854 91.8294 17.0704V29.1343ZM72.3538 24.6461L71.9978 29.0179C70.7766 29.3517 69.6923 29.4715 68.3804 29.4715C63.5818 29.4715 62.19 27.2292 62.19 22.7225V4.50272H67.2825V9.92119H72.3499L71.9978 14.4075H67.2825V22.3323C67.2825 24.1408 67.7692 25.1177 69.5896 25.1177C70.3811 25.1177 71.2616 25.0206 72.3538 24.6461V24.6461ZM60.5178 9.92096L60.1235 14.4079H58.7397C55.8745 14.4079 54.4495 16.7502 54.4495 19.0006V29.1345H49.3565V9.92096H54.1785L54.2789 12.3191C55.2958 10.6746 57.0654 9.92096 59.2504 9.92096H60.5178ZM26.3749 27.0057C22.9208 28.8887 19.4706 29.9749 14.9134 29.84C6.46488 29.5772 0.369751 24.2314 0.369751 15.2017C0.369751 6.21163 6.52367 0.467522 14.9174 0.332612C19.1722 0.266321 22.9796 1.36653 25.9555 4.04263L22.3707 7.73809C20.5292 6.13837 17.8197 5.20331 14.5818 5.35276C9.29931 5.60339 6.11621 9.51518 6.04602 14.8935C5.97697 20.7208 9.48363 24.7367 14.9653 24.8832C17.5447 24.949 19.3924 24.596 20.9914 23.8644V17.9081H15.294L15.6786 13.0228H26.3749V27.0057ZM113.216 21.3536H99.2542C99.6519 23.8087 101.546 25.2858 103.904 25.3526C106.197 25.416 107.48 24.7101 109.157 22.9795L112.48 25.5614C110.119 28.5253 107.285 29.604 104.057 29.604C98.3788 29.604 94.1251 25.5585 94.1251 19.5271C94.1251 13.5021 98.3577 9.45191 103.844 9.45191C109.892 9.45191 113.216 13.1852 113.216 19.812V21.3536ZM108.115 17.3366C107.958 14.9094 106.174 13.3748 103.716 13.4725C101.242 13.5678 99.5954 15.2094 99.2542 17.3366H108.115ZM46.1504 16.5528V29.1343H41.6605L41.5493 27.2397C40.1717 28.9785 37.9353 29.6042 35.6327 29.6042C32.1654 29.6042 28.8893 27.862 28.8209 23.8042C28.7176 17.4262 35.865 16.9732 40.3537 16.9732H41.2508V16.7209C41.2508 14.6117 39.8812 13.4726 37.3025 13.4726C35.4513 13.4726 33.624 14.2291 32.2727 15.5201L29.3345 12.4782C32.0022 10.2743 34.7779 9.45204 37.735 9.45204C43.5756 9.45204 46.1504 12.2026 46.1504 16.5528ZM41.2508 20.7554H40.5426C38.1316 20.7606 33.8968 20.8816 33.9128 23.4507C33.9356 27.07 41.2508 25.9197 41.2508 21.5549V20.7554ZM123.135 26.8993C123.135 25.6764 124.04 24.7547 125.202 24.7547C126.349 24.7547 127.256 25.6764 127.256 26.8993C127.256 28.1438 126.349 29.0625 125.202 29.0625C124.04 29.0625 123.135 28.1438 123.135 26.8993ZM125.202 29.4923C126.584 29.4923 127.764 28.3979 127.764 26.8993C127.764 25.4159 126.584 24.3238 125.202 24.3238C123.806 24.3238 122.626 25.4159 122.626 26.8993C122.626 28.3979 123.806 29.4923 125.202 29.4923ZM124.665 27.1063H125.175L125.945 28.3979H126.443L125.611 27.0854C126.041 27.0319 126.369 26.797 126.369 26.2637C126.369 25.6764 126.027 25.4159 125.336 25.4159H124.223V28.3979H124.665V27.1063ZM124.665 26.722V25.8003H125.268C125.577 25.8003 125.906 25.8683 125.906 26.2376C125.906 26.6952 125.57 26.722 125.196 26.722H124.665Z" fill="white"/>
</svg>