<?xml version="1.0" encoding="utf-8"?>
<!-- Generator: Adobe Illustrator 19.1.1, SVG Export Plug-In . SVG Version: 6.00 Build 0)  -->
<svg version="1.1" id="Layer_1" xmlns="http://www.w3.org/2000/svg" xmlns:xlink="http://www.w3.org/1999/xlink" x="0px" y="0px"
	 viewBox="0 0 527.4 191.1" style="enable-background:new 0 0 527.4 191.1;" xml:space="preserve">
<style type="text/css">
	.st0{fill:#FFFFFF;}
	.st1{fill:#F37321;}
</style>
<g>
	<g>
		<path class="st0" d="M104.2,73.3h9.6c2.1,0,3.8-1.7,3.8-3.8c0-2.1-1.7-3.8-3.8-3.8l-9.6,0c-2.1,0-3.8,1.7-3.8,3.8
			C100.4,71.6,102.1,73.3,104.2,73.3z"/>
		<path class="st0" d="M113.9,119.2l-9.6,0c-2.1,0-3.8,1.7-3.8,3.8c0,2.1,1.7,3.8,3.8,3.8h9.6c2.1,0,3.8-1.7,3.8-3.8
			C117.7,120.9,116,119.2,113.9,119.2z"/>
		<path class="st0" d="M100.4,83.1c0,2.4,1.9,4.3,4.3,4.3l17.5,0c2.4,0,4.3-1.9,4.3-4.3s-1.9-4.3-4.3-4.3l-17.5,0
			C102.3,78.8,100.4,80.7,100.4,83.1z"/>
		<path class="st0" d="M122.2,105.7h-17.5c-2.4,0-4.3,1.9-4.3,4.3s1.9,4.3,4.3,4.3h17.5c2.4,0,4.3-1.9,4.3-4.3
			S124.5,105.7,122.2,105.7z"/>
		<path class="st0" d="M127.6,92.3h-22.9c-2.4,0-4.3,1.9-4.3,4.3s1.9,4.3,4.3,4.3h22.9c2.4,0,4.3-1.9,4.3-4.3S129.9,92.3,127.6,92.3
			z"/>
	</g>
	<path class="st0" d="M92.4,63.7c-3,0-5.5,2.5-5.5,5.5v22.4c-0.1,1-0.9,1.7-1.9,1.7c-1.1,0-2-0.9-2-1.9l0-17.7c0-2.5-2-4.5-4.5-4.5
		c-2.5,0-4.5,2-4.5,4.5l0,13.4c0,0.8-0.7,1.5-1.6,1.5c-0.9,0-1.6-0.7-1.6-1.6v-3.1c0-2-1.6-3.6-3.6-3.6c-2,0-3.6,1.6-3.6,3.6v23.3
		c0,2,1.6,3.6,3.6,3.6c2,0,3.6-1.6,3.6-3.6v-4.8c0-0.9,0.7-1.6,1.6-1.6c0.8,0,1.5,0.7,1.6,1.5l0,15.1c0,2.5,2,4.5,4.5,4.5
		c2.5,0,4.5-2,4.5-4.5l0-8.2c0-1.1,0.9-1.9,2-1.9c1,0,1.8,0.7,1.9,1.7v13c0,3,2.5,5.5,5.5,5.5c3,0,5.5-2.5,5.5-5.5V69.2
		C97.9,66.2,95.5,63.7,92.4,63.7z"/>
	<g>
		<path class="st0" d="M181.6,97c0,10.2-7.9,17.7-18.9,17.7c-10.9,0-18.9-7.4-18.9-17.7c0-10.2,7.9-17.5,18.9-17.5
			C173.7,79.6,181.6,86.9,181.6,97z M155.5,97.1c0,4.7,3.4,8.2,7.4,8.2c3.9,0,7.1-3.5,7.1-8.2c0-4.7-3.1-8.1-7.1-8.1
			C158.9,89,155.5,92.4,155.5,97.1z"/>
		<path class="st0" d="M202.2,79.9c8.3,0,13.6,3.4,13.6,8.7c0,3.4-2.3,6.3-5.8,7.4c4.1,0.9,6.8,4.4,6.8,8.7c0,5.9-5.4,9.7-13.8,9.7
			h-18.2V79.9H202.2z M196.1,93.1h5.4c1.6,0,2.6-1,2.6-2.5c0-1.5-1-2.4-2.6-2.4h-5.4V93.1z M196.1,105.9h5.4c2.1,0,3.5-1.1,3.5-2.7
			c0-1.5-1.4-2.5-3.5-2.5h-5.4V105.9z"/>
		<path class="st0" d="M250.1,83.5l-4.1,8.6c-3.5-1.9-8.8-4-11.8-4c-1.3,0-2.1,0.4-2.1,1.4c0,4.3,17.8,1.6,17.8,14.1
			c0,7.6-6.7,11-14.5,11c-6,0-12.6-2-17.2-5.5l4.2-8.5c3.5,2.9,9.6,5.3,13.1,5.3c1.7,0,2.7-0.5,2.7-1.8c0-4.5-17.8-1.5-17.8-13.6
			c0-6.9,5.8-11.2,14.7-11.2C240.6,79.4,246.2,81,250.1,83.5z"/>
		<path class="st0" d="M264.2,88.5v4.2h16.1v8.6h-16.1v4.3h18.1v8.6h-29.5V79.9h29.1v8.6H264.2z"/>
		<path class="st0" d="M302.2,105.3H298v8.9h-11.4V79.9h16.6c9.3,0,14.7,4.5,14.7,12.3c0,5-1.9,8.7-5.4,10.9l6.8,11.2h-12.8
			L302.2,105.3z M303.2,96.7c2.5,0,3.9-1.5,3.9-4.2c0-2.5-1.4-4-3.9-4H298v8.2H303.2z"/>
		<path class="st0" d="M332.2,114.2l-13-34.4h12.2l7.1,22.5l7.1-22.5h11.6L344,114.2H332.2z"/>
		<path class="st0" d="M370.7,88.5v4.2h16.1v8.6h-16.1v4.3h18.1v8.6h-29.5V79.9h29.1v8.6H370.7z"/>
		<path class="st0" d="M423.7,109.4l-1.8,4.9h-11.7l14.5-34.4h11.7l14,34.4h-12.1l-1.7-4.9H423.7z M430.2,91.2l-3.6,10h7.2
			L430.2,91.2z"/>
		<path class="st0" d="M452.3,114.2V79.9h11.4v34.4H452.3z"/>
	</g>
	<g>
		<path class="st0" d="M408.7,98.9c0,4.1-2.9,7-7,7c-4.1,0-6.9-2.9-6.9-7c0-4.1,2.9-6.9,6.9-6.9C405.8,92,408.7,94.8,408.7,98.9z"/>
	</g>
</g>
</svg>
