<svg width="590" height="156" viewBox="0 0 590 156" fill="none" xmlns="http://www.w3.org/2000/svg">
<g clip-path="url(#clip0)">
<path d="M207.263 97.2748L207.444 96.3649H207.498L212.291 76.3678C215.587 73.6917 219.44 71.049 223.474 71.049C229.515 71.049 227.649 77.5252 226.642 81.5527L219.48 111.826H238.839C253.668 111.826 260.32 103.637 261.877 97.2815L267.919 71.8586H276.175L278.753 61.201H270.49L270.852 59.6221C272.463 52.6442 273.094 53.9822 285.855 53.9822L272.114 112H315.518C330.816 112 341.604 99.1614 344.712 86.2024C346.054 80.683 345.994 75.2304 344.302 70.8149C351.31 70.9286 351.921 71.8519 352.022 76.6153L352.518 111.859H365.568L380 77.7393H380.188L378.329 111.859H391.371L416.812 61.2211H404.891L389.881 93.7356H389.693L391.754 61.2211H377.771L363.232 93.7022H363.044L363.903 77.0167L363.776 74.5079C363.628 68.1522 360.486 60.4584 345.651 60.4584H327.856C312.464 60.4584 301.797 73.0226 298.589 86.0686C297.421 90.9324 297.367 95.7695 298.589 99.884C297.159 99.9442 295.34 99.8371 289.191 99.8371L302.932 42H281.337C266.509 42 259.38 49.7138 257.843 56.0495L256.621 61.1742H249.66L247.103 71.8452H254.05L248.895 93.6085C247.291 100.573 248.479 99.6966 236.436 99.71L242.021 76.1202C244.968 63.7767 237.557 60.4985 231.831 60.4985C226.105 60.4985 219.883 63.081 214.714 66.5666L215.922 61.2144H202.014L194.267 93.729C192.314 100.66 194.61 99.7502 181.842 99.7502L195.576 42.0468H181.654L165 111.826H184.541C199.369 111.826 205.726 103.624 207.263 97.2748V97.2748ZM312.813 86.1088C314.33 79.9738 318.042 70.0856 325.567 70.0856C333.092 70.0856 331.991 79.9738 330.474 86.1088C328.957 92.2437 325.325 102.165 317.814 102.165C310.302 102.165 311.39 92.2705 312.813 86.1422V86.1088Z" fill="white"/>
</g>
<defs>
<clipPath id="clip0">
<rect width="251.806" height="70" fill="white" transform="translate(165 42)"/>
</clipPath>
</defs>
</svg>
