<svg width="590" height="156" viewBox="0 0 590 156" fill="none" xmlns="http://www.w3.org/2000/svg">
<path d="M201.939 65.084H212.276V104.959H201.939V100.254C198.813 104.162 194.486 106.076 188.877 106.076C186.278 106.104 183.703 105.577 181.326 104.532C178.948 103.486 176.823 101.946 175.094 100.015C171.316 95.9404 169.276 90.5646 169.405 85.0217C169.277 79.5027 171.318 74.1519 175.094 70.1083C178.941 66.041 183.508 63.9675 188.877 63.9675C194.486 63.9675 198.813 65.8816 201.939 69.7893V65.084ZM190.8 96.2666C192.266 96.3142 193.726 96.0627 195.09 95.5278C196.454 94.993 197.694 94.1859 198.733 93.1563C199.798 92.0903 200.631 90.8185 201.183 89.4194C201.734 88.0203 201.991 86.5236 201.939 85.0217C201.939 81.7519 200.897 79.0404 198.733 76.9669C197.71 75.9111 196.474 75.0815 195.108 74.5319C193.741 73.9823 192.273 73.7251 190.8 73.7768C189.327 73.7251 187.859 73.9824 186.493 74.5319C185.126 75.0815 183.891 75.9111 182.867 76.9669C181.824 78.0282 181.01 79.2897 180.472 80.6745C179.935 82.0592 179.686 83.5383 179.742 85.0217C179.694 86.5163 179.945 88.0053 180.482 89.402C181.019 90.7987 181.829 92.075 182.867 93.1563C183.906 94.1859 185.146 94.9929 186.51 95.5278C187.875 96.0627 189.335 96.3141 190.8 96.2666Z" fill="white"/>
<path d="M221.632 104.959V51.0703H231.969V104.959H221.632Z" fill="white"/>
<path d="M278.385 104.959H266.366L251.782 86.8554V104.959H241.444V51.0703H251.782V82.6286L265.564 65.0834H277.905L261.798 84.7819L278.385 104.959Z" fill="white"/>
<path d="M311 50.925H321.337V104.738H311V100.033C307.955 103.941 303.628 105.855 298.019 105.855C295.408 105.883 292.821 105.357 290.431 104.312C288.04 103.267 285.901 101.727 284.156 99.7936C280.378 95.7191 278.338 90.3433 278.467 84.8005C278.338 79.2815 280.38 73.9306 284.156 69.887C288.002 65.8197 292.65 63.7462 298.019 63.7462C303.628 63.7462 307.955 65.6603 311 69.5681V50.925ZM299.942 96.0453C301.408 96.0929 302.867 95.8415 304.232 95.3066C305.596 94.7717 306.836 93.9646 307.875 92.935C308.913 91.8537 309.724 90.5774 310.26 89.1808C310.797 87.7841 311.048 86.295 311 84.8005C311.056 83.3171 310.807 81.838 310.27 80.4532C309.733 79.0685 308.918 77.807 307.875 76.7456C306.852 75.6899 305.616 74.8603 304.25 74.3107C302.883 73.7611 301.415 73.5038 299.942 73.5556C298.458 73.5111 296.98 73.7714 295.602 74.3202C294.223 74.8691 292.973 75.6947 291.929 76.7456C290.886 77.807 290.071 79.0685 289.534 80.4532C288.997 81.838 288.748 83.3171 288.804 84.8005C288.756 86.295 289.007 87.7841 289.544 89.1807C290.08 90.5774 290.891 91.8537 291.929 92.935C292.988 93.9597 294.243 94.7628 295.619 95.297C296.996 95.8312 298.465 96.0857 299.942 96.0453V96.0453Z" fill="white"/>
<path d="M338.632 89.2486C339.994 94.2729 343.761 96.7452 349.931 96.7452C353.857 96.7452 356.902 95.3894 358.906 92.7576L367.24 97.5427C363.313 103.205 357.463 106.076 349.771 106.076C343.12 106.076 337.831 104.082 333.824 100.095C329.818 96.1071 327.814 91.0828 327.814 85.0218C327.814 79.0404 329.818 74.0161 333.744 70.0286C337.671 65.9613 342.799 63.9675 348.969 63.9675C354.819 63.9675 359.707 65.9613 363.473 70.0286C367.32 74.0959 369.243 79.0404 369.243 85.0218C369.221 86.439 369.087 87.8523 368.842 89.2486L338.632 89.2486ZM358.906 81.2735C357.704 75.8504 353.697 73.2186 348.969 73.2186C343.44 73.2186 339.674 76.1694 338.472 81.2735H358.906Z" fill="white"/>
<path d="M393.52 80.7949C399.37 81.9912 406.982 84.7825 406.902 93.3159C406.902 97.3831 405.38 100.573 402.254 102.806C399.209 104.959 395.363 106.076 390.795 106.076C382.542 106.076 376.933 102.886 373.968 96.5856L382.942 91.5613C384.144 94.9906 386.709 96.7451 390.795 96.7451C394.482 96.7451 396.325 95.6286 396.325 93.3159C396.325 91.1626 393.119 89.9663 389.033 88.9296C383.103 87.4143 375.65 84.942 375.65 76.6479C375.65 72.7401 377.093 69.6298 379.978 67.3968C382.942 65.084 386.548 63.9675 390.876 63.9675C397.366 63.9675 402.976 66.998 406.101 72.4211L397.286 77.2062C396.767 75.9546 395.874 74.8926 394.726 74.1648C393.579 73.437 392.235 73.0788 390.876 73.1389C388.231 73.1389 386.228 74.4149 386.228 76.4086C386.228 78.5619 389.433 79.7582 393.52 80.7949Z" fill="white"/>
<path d="M450.496 104.959H438.476L423.892 86.8554V104.959H413.555V51.0703H423.892V82.6286L437.675 65.0834H450.015L433.908 84.7819L450.496 104.959Z" fill="white"/>
<path d="M164.658 74.7501H155.603V92.1229C155.603 96.4294 158.728 96.5092 164.658 96.1902V105.521C150.474 107.116 145.266 103.049 145.266 92.1229V50.925H155.603V64.8609H164.658V74.7501Z" fill="white"/>
<path d="M129.538 74.646C132.447 74.646 134.804 72.2997 134.804 69.4054C134.804 66.5111 132.447 64.1648 129.538 64.1648C126.63 64.1648 124.273 66.5111 124.273 69.4054C124.273 72.2997 126.63 74.646 129.538 74.646Z" fill="white"/>
<path d="M129.538 89.2444C132.447 89.2444 134.804 86.8981 134.804 84.0038C134.804 81.1095 132.447 78.7632 129.538 78.7632C126.63 78.7632 124.273 81.1095 124.273 84.0038C124.273 86.8981 126.63 89.2444 129.538 89.2444Z" fill="white"/>
<path d="M129.538 103.844C132.447 103.844 134.804 101.497 134.804 98.6029C134.804 95.7086 132.447 93.3623 129.538 93.3623C126.63 93.3623 124.273 95.7086 124.273 98.6029C124.273 101.497 126.63 103.844 129.538 103.844Z" fill="white"/>
</svg>
