<svg width="218" height="37" viewBox="0 0 218 37" fill="none" xmlns="http://www.w3.org/2000/svg">
<path d="M55.0478 24.9861C55.7848 25.023 56.6693 25.0967 57.2958 25.2072C57.4064 25.502 57.4064 26.2022 57.3695 26.4971H50.6623C50.6992 26.1285 50.8466 25.5757 50.9572 25.2441C51.4362 25.1335 52.3576 24.9861 52.9103 24.9493V11.7192H49.1145C49.0777 12.272 48.8934 13.267 48.8197 13.7092C48.4512 13.8198 47.8247 13.8566 47.4193 13.8566V10.3188H60.5388V13.9672C60.0597 13.9672 59.4701 13.8935 59.1016 13.8198C58.991 13.3038 58.8436 12.3457 58.8068 11.756H55.0478V24.9861ZM65.3665 25.0598C65.9193 25.0967 66.6564 25.2072 67.0617 25.3546C67.1354 25.6495 67.1723 26.1654 67.0986 26.4602H61.497C61.5338 26.0917 61.6444 25.7232 61.8287 25.4283C62.1972 25.2809 62.8605 25.0598 63.3396 24.9861V10.9821H61.6444C61.6813 10.5768 61.8287 10.0977 62.0498 9.72914C62.6026 9.50803 63.4133 9.39746 64.1504 9.39746C64.5558 9.39746 64.998 9.43432 65.3297 9.54488V14.0777C65.3297 15.0359 65.2928 16.0309 65.2191 16.9891H65.4402C65.8087 16.0678 67.0249 14.9991 69.0886 14.9991C70.9681 14.9991 72.6265 15.5887 72.6265 19.2002C72.6265 21.1534 72.5896 23.1066 72.4791 25.0598C73.1056 25.0967 73.9163 25.2072 74.3585 25.3546C74.3954 25.5389 74.4322 25.8337 74.4322 26.0917C74.4322 26.2391 74.4323 26.3497 74.3954 26.4971H68.8675C68.9044 26.1285 69.0149 25.76 69.1992 25.4652C69.5677 25.3178 70.1205 25.0967 70.5259 25.023V19.5688C70.5259 17.763 69.9362 16.6206 68.2779 16.6206C67.0617 16.6206 65.7719 17.4682 65.2928 18.1315V25.0598H65.3665ZM77.9701 21.2271C78.007 23.7331 79.5916 25.2809 81.7659 25.2809C82.7609 25.2809 84.1613 24.9493 85.0458 24.6176C85.0827 24.9861 84.9352 25.6126 84.751 25.9443C83.9034 26.4234 82.503 26.9024 81.0657 26.9024C77.7121 26.9024 75.7958 24.3965 75.7958 21.1903C75.7958 17.763 77.9332 15.0359 81.1763 15.0359C83.9771 15.0359 85.1564 17.0628 85.1564 20.011C85.1564 20.4164 85.1195 20.8218 85.0826 21.264C85.1195 21.2271 77.9701 21.2271 77.9701 21.2271ZM83.0926 19.8636C83.24 18.2421 82.7978 16.2889 80.8446 16.2889C79.1862 16.2889 78.1175 17.7262 77.9701 19.8636H83.0926ZM91.7161 26.4971C91.753 26.1285 91.8635 25.5757 92.0109 25.2441C92.4163 25.1335 93.3008 24.9861 93.8167 24.9493V11.7929C93.2639 11.756 92.49 11.6823 92.0846 11.6455C92.0109 11.3506 91.9741 10.6136 92.0478 10.3188H97.9442C98.0179 10.6136 97.9811 11.3138 97.9073 11.6455C97.3546 11.756 96.6175 11.7929 95.991 11.8297V25.023C96.6544 25.0598 97.502 25.1335 98.0548 25.2441C98.1285 25.502 98.1653 25.8337 98.1653 26.1654C98.1653 26.3128 98.1653 26.3865 98.1285 26.5339L91.7161 26.4971ZM103.472 25.0598C104.062 25.0967 104.762 25.2072 105.167 25.3546C105.241 25.6495 105.278 26.1654 105.204 26.4602H99.6026C99.6394 26.0917 99.75 25.7232 99.9342 25.4283C100.303 25.2809 100.966 25.0598 101.445 24.9861V16.6943H99.7131C99.75 16.2889 99.8974 15.8098 100.119 15.4413C100.598 15.257 101.371 15.1096 102.072 15.1096C102.477 15.1096 102.846 15.1465 103.177 15.257V16.9522H103.398C103.804 16.1415 105.057 14.9622 107.157 14.9622C109 14.9622 110.621 15.5518 110.621 19.1634C110.621 21.1166 110.585 23.0329 110.474 25.023C111.101 25.0598 111.911 25.1704 112.354 25.3178C112.39 25.502 112.427 25.7969 112.427 26.0548C112.427 26.2022 112.427 26.3128 112.39 26.4602H106.863C106.899 26.0917 107.01 25.7232 107.194 25.4283C107.563 25.2809 108.116 25.0598 108.521 24.9861V19.5319C108.521 17.7261 107.968 16.5837 106.31 16.5837C105.13 16.5837 103.877 17.4313 103.398 18.0947L103.472 25.0598ZM120.645 15.4044C120.719 15.8098 120.756 16.3995 120.756 16.768H117.587V25.023C118.25 25.0598 119.356 25.2809 119.908 25.4283C119.982 25.7232 120.019 26.1654 119.945 26.4971H113.717C113.754 26.1285 113.865 25.76 114.049 25.4652C114.417 25.3178 115.081 25.0967 115.56 25.023V16.768H113.717C113.717 16.4363 113.865 15.8835 114.012 15.5518C114.454 15.4044 115.081 15.2202 115.56 15.1465V13.8935C115.56 10.7242 117.476 9.47117 119.687 9.47117C120.424 9.47117 121.309 9.58173 122.23 9.87655C122.267 10.1345 122.304 10.3925 122.304 10.6873C122.304 11.4244 122.156 12.2351 121.972 12.751C121.604 12.751 120.903 12.6036 120.609 12.3825V10.761C120.387 10.6505 120.056 10.6136 119.871 10.6136C118.618 10.6136 117.623 11.2401 117.623 13.6355V15.4044H120.645ZM132.549 20.7849C132.549 24.6913 130.485 26.9024 127.242 26.9024C123.815 26.9024 121.935 24.8018 121.935 20.7849C121.935 17.2102 124.22 14.9991 127.242 14.9991C130.411 14.9991 132.549 17.0628 132.549 20.7849ZM127.242 25.502C129.379 25.502 130.411 23.6963 130.411 20.7849C130.411 18.2789 129.158 16.3995 127.242 16.3995C125.178 16.3995 124.036 18.1684 124.036 20.7849C124.073 23.6226 125.252 25.502 127.242 25.502ZM138.15 17.505C138.482 16.0678 139.661 14.9991 141.172 14.9991C141.467 14.9991 141.946 15.0728 142.241 15.1833C142.388 15.4781 142.536 15.9941 142.536 16.5837C142.536 16.8048 142.499 17.0259 142.462 17.2102C142.057 16.9522 141.43 16.8048 140.877 16.8048C139.809 16.8048 138.777 17.3945 138.187 18.7212V24.9861C138.851 25.023 139.956 25.2072 140.509 25.3915C140.583 25.6863 140.619 26.1285 140.546 26.4602H134.318C134.355 26.0917 134.465 25.7232 134.649 25.4283C135.018 25.2809 135.681 25.0598 136.16 24.9861V16.6943H134.465C134.502 16.2889 134.649 15.8098 134.87 15.4413C135.386 15.257 136.123 15.1096 136.824 15.1096C137.229 15.1096 137.598 15.1465 137.929 15.257V17.4682H138.15V17.505ZM147.769 25.0598C148.359 25.0967 149.059 25.2072 149.464 25.3546C149.538 25.6495 149.575 26.1654 149.501 26.4602H143.936C143.973 26.0917 144.084 25.7232 144.268 25.4283C144.636 25.2809 145.3 25.0598 145.779 24.9861V16.6943H144.084C144.12 16.2889 144.268 15.8098 144.489 15.4413C144.968 15.257 145.742 15.1096 146.442 15.1096C146.848 15.1096 147.216 15.1465 147.548 15.257V16.9522H147.769C148.174 16.1415 149.39 14.9622 151.454 14.9622C152.891 14.9622 154.108 15.3676 154.55 17.0997H154.66C155.066 16.252 156.319 14.9622 158.419 14.9622C160.225 14.9622 161.847 15.5518 161.847 19.1634C161.847 21.1534 161.81 23.1066 161.699 25.023C162.326 25.0598 163.136 25.1704 163.579 25.3178C163.615 25.502 163.652 25.7969 163.652 26.0548C163.652 26.2022 163.652 26.3128 163.615 26.4602H158.088C158.124 26.0917 158.235 25.7232 158.419 25.4283C158.788 25.2809 159.341 25.0598 159.746 24.9861V19.5319C159.746 17.7261 159.193 16.5837 157.609 16.5837C156.429 16.5837 155.25 17.4313 154.771 18.0947V25.0598C155.361 25.0967 156.061 25.2441 156.466 25.3915C156.54 25.6863 156.577 26.2022 156.503 26.4971H151.122C151.159 26.1285 151.27 25.76 151.454 25.4652C151.823 25.3178 152.375 25.0967 152.781 25.023V19.5688C152.781 17.763 152.228 16.6206 150.643 16.6206C149.464 16.6206 148.285 17.4682 147.806 18.1315L147.769 25.0598ZM171.723 25.1335C171.133 26.2759 169.844 26.9024 168.443 26.9024C166.748 26.9024 165.126 25.9074 165.126 23.77C165.126 21.3745 167.153 20.1216 169.475 20.1216C170.212 20.1216 171.06 20.269 171.649 20.5269V19.274C171.649 17.5419 170.912 16.6574 169.438 16.6574C168.443 16.6574 166.859 17.2471 166.011 17.7999C165.9 17.5787 165.9 17.3208 165.9 16.9891C165.9 16.5469 166.011 16.0678 166.158 15.8098C166.932 15.3676 168.738 14.9991 169.954 14.9991C172.497 14.9991 173.639 16.252 173.639 19.4214V23.9542C173.639 24.4333 173.75 24.9861 173.934 25.1704C174.303 25.1704 175.113 25.023 175.556 24.8755C175.593 24.9861 175.593 25.0598 175.593 25.1335C175.593 25.502 175.482 25.9074 175.371 26.2022C174.856 26.5339 173.639 26.8656 172.865 26.8656C172.386 26.5708 171.944 25.8337 171.87 25.0967L171.723 25.1335ZM171.649 21.5588C171.207 21.4483 170.47 21.3745 170.028 21.3745C168.222 21.3745 167.19 22.1853 167.19 23.4383C167.19 24.7281 168.185 25.3178 169.328 25.3178C170.249 25.3178 171.207 24.8755 171.686 24.1753C171.649 24.1385 171.649 21.5588 171.649 21.5588ZM178.467 12.5668C178.836 12.3825 179.573 12.1983 180.015 12.1983V15.4044H183.405C183.442 15.6256 183.516 16.3995 183.479 16.768H180.015V23.1803C180.015 24.6913 180.236 25.3546 181.526 25.3546C182.189 25.3546 182.963 25.2441 183.7 25.0598C183.737 25.1704 183.737 25.3178 183.737 25.3546C183.737 25.6863 183.626 26.0548 183.516 26.2759C182.595 26.6813 181.563 26.9024 180.641 26.9024C178.836 26.9024 177.951 25.9074 177.951 23.512C177.951 22.1485 177.988 19.1265 178.062 16.768H176.44C176.44 16.4363 176.588 15.8467 176.735 15.5518C177.104 15.4044 177.656 15.2202 178.099 15.1465C178.062 15.1096 178.467 12.5668 178.467 12.5668ZM185.506 16.7311C185.543 16.3258 185.69 15.8467 185.911 15.4781C186.464 15.2939 187.238 15.1465 188.012 15.1465C188.417 15.1465 188.86 15.1833 189.228 15.2939V25.0598C189.818 25.0967 190.592 25.2441 191.071 25.3915C191.108 25.5758 191.144 25.8706 191.144 26.1285C191.144 26.276 191.144 26.3865 191.108 26.5339H185.359C185.395 26.1654 185.506 25.7969 185.69 25.502C186.059 25.3546 186.722 25.1335 187.201 25.0598V16.768C187.201 16.7311 185.506 16.7311 185.506 16.7311ZM189.597 11.2769C189.597 12.1614 189.044 12.6405 188.307 12.6405C187.459 12.6405 186.98 12.1614 186.98 11.2769C186.98 10.503 187.533 9.9871 188.307 9.9871C189.044 9.9871 189.597 10.4662 189.597 11.2769ZM202.937 20.7849C202.937 24.6913 200.873 26.9024 197.63 26.9024C194.203 26.9024 192.324 24.8018 192.324 20.7849C192.324 17.2102 194.609 14.9991 197.63 14.9991C200.837 14.9991 202.937 17.0628 202.937 20.7849ZM197.667 25.502C199.805 25.502 200.837 23.6963 200.837 20.7849C200.837 18.2789 199.584 16.3995 197.667 16.3995C195.604 16.3995 194.461 18.1684 194.461 20.7849C194.461 23.6226 195.677 25.502 197.667 25.502ZM208.797 25.0598C209.386 25.0967 210.087 25.2072 210.492 25.3546C210.566 25.6495 210.603 26.1654 210.529 26.4602H204.927C204.964 26.0917 205.075 25.7232 205.259 25.4283C205.627 25.2809 206.291 25.0598 206.77 24.9861V16.6943H205.075C205.112 16.2889 205.259 15.8098 205.48 15.4413C205.959 15.257 206.733 15.1096 207.433 15.1096C207.839 15.1096 208.207 15.1465 208.539 15.257V16.9522H208.76C209.165 16.1415 210.418 14.9622 212.519 14.9622C214.361 14.9622 215.983 15.5518 215.983 19.1634C215.983 21.1166 215.946 23.0329 215.836 25.023C216.462 25.0598 217.273 25.1704 217.715 25.3178C217.752 25.502 217.789 25.7969 217.789 26.0548C217.789 26.2022 217.789 26.3128 217.752 26.4602H212.224C212.261 26.0917 212.371 25.7232 212.556 25.4283C212.887 25.2809 213.477 25.0598 213.882 24.9861V19.5319C213.882 17.7261 213.33 16.5837 211.671 16.5837C210.492 16.5837 209.239 17.4313 208.76 18.0947L208.797 25.0598Z" fill="white"/>
<path d="M37 18.5C37 8.29183 28.7082 0 18.5 0C8.29183 0 0 8.29183 0 18.5C0 28.7082 8.29183 37 18.5 37C28.7082 37 37 28.745 37 18.5Z" fill="white"/>
<path d="M24.5806 23.9172L20.3426 22.9222V14.1513L24.5806 13.1562C25.0229 13.0457 25.3545 12.6403 25.3545 12.1981V10.466H11.6822V12.1981C11.6822 12.6403 11.9771 13.0457 12.4193 13.1562L16.6573 14.1513V22.9222L12.4193 23.9172C11.9771 24.0278 11.6454 24.4331 11.6454 24.8754V26.6074H25.3177V24.8754C25.3545 24.3963 25.0229 24.0278 24.5806 23.9172Z" fill="#1A1A1A"/>
</svg>